<svg width="32" height="32" viewBox="0 -4 15 15" fill="none" xmlns="http://www.w3.org/2000/svg">
  <rect x="0" y="-4" width="15" height="15" fill="#09090b" />

  <circle cx="0.5" cy="0.5" r="0.4" fill="#ffffff" opacity="1" />
  <circle cx="1.5" cy="0.5" r="0.4" fill="#ffffff" opacity="1" />
  <circle cx="5.5" cy="0.5" r="0.4" fill="#ffffff" opacity="1" />
  <circle cx="6.5" cy="0.5" r="0.4" fill="#ffffff" opacity="1" />
  <circle cx="0.5" cy="1.5" r="0.4" fill="#ffffff" opacity="1" />
  <circle cx="1.5" cy="1.5" r="0.4" fill="#ffffff" opacity="1" />
  <circle cx="2.5" cy="1.5" r="0.4" fill="#ffffff" opacity="0.8" />
  <circle cx="4.5" cy="1.5" r="0.4" fill="#ffffff" opacity="0.8" />
  <circle cx="5.5" cy="1.5" r="0.4" fill="#ffffff" opacity="1" />
  <circle cx="6.5" cy="1.5" r="0.4" fill="#ffffff" opacity="0.6" />
  <circle cx="0.5" cy="2.5" r="0.4" fill="#ffffff" opacity="1" />
  <circle cx="1.5" cy="2.5" r="0.4" fill="#ffffff" opacity="1" />
  <circle cx="3.5" cy="2.5" r="0.4" fill="#ffffff" opacity="1" />
  <circle cx="5.5" cy="2.5" r="0.4" fill="#ffffff" opacity="1" />
  <circle cx="6.5" cy="2.5" r="0.4" fill="#ffffff" opacity="1" />
  <circle cx="0.5" cy="3.5" r="0.4" fill="#ffffff" opacity="0.6" />
  <circle cx="1.5" cy="3.5" r="0.4" fill="#ffffff" opacity="1" />
  <circle cx="5.5" cy="3.5" r="0.4" fill="#ffffff" opacity="1" />
  <circle cx="6.5" cy="3.5" r="0.4" fill="#ffffff" opacity="0.6" />
  <circle cx="0.5" cy="4.5" r="0.4" fill="#ffffff" opacity="1" />
  <circle cx="1.5" cy="4.5" r="0.4" fill="#ffffff" opacity="1" />
  <circle cx="5.5" cy="4.5" r="0.4" fill="#ffffff" opacity="1" />
  <circle cx="6.5" cy="4.5" r="0.4" fill="#ffffff" opacity="1" />
  <circle cx="0.5" cy="5.5" r="0.4" fill="#ffffff" opacity="1" />
  <circle cx="1.5" cy="5.5" r="0.4" fill="#ffffff" opacity="0.6" />
  <circle cx="5.5" cy="5.5" r="0.4" fill="#ffffff" opacity="1" />
  <circle cx="6.5" cy="5.5" r="0.4" fill="#ffffff" opacity="1" />
  <circle cx="0.5" cy="6.5" r="0.4" fill="#ffffff" opacity="1" />
  <circle cx="1.5" cy="6.5" r="0.4" fill="#ffffff" opacity="1" />
  <circle cx="5.5" cy="6.5" r="0.4" fill="#ffffff" opacity="0.6" />
  <circle cx="6.5" cy="6.5" r="0.4" fill="#ffffff" opacity="1" />

  <circle cx="9.5" cy="0.5" r="0.4" fill="#055df5" opacity="1" />
  <circle cx="10.5" cy="0.5" r="0.4" fill="#055df5" opacity="0.6" />
  <circle cx="14.5" cy="0.5" r="0.4" fill="#055df5" opacity="1" />
  <circle cx="9.5" cy="1.5" r="0.4" fill="#055df5" opacity="1" />
  <circle cx="10.5" cy="1.5" r="0.4" fill="#055df5" opacity="1" />
  <circle cx="11.5" cy="1.5" r="0.4" fill="#055df5" opacity="1" />
  <circle cx="14.5" cy="1.5" r="0.4" fill="#055df5" opacity="0.6" />
  <circle cx="9.5" cy="2.5" r="0.4" fill="#055df5" opacity="1" />
  <circle cx="10.5" cy="2.5" r="0.4" fill="#055df5" opacity="1" />
  <circle cx="11.5" cy="2.5" r="0.4" fill="#055df5" opacity="0.6" />
  <circle cx="12.5" cy="2.5" r="0.4" fill="#055df5" opacity="1" />
  <circle cx="14.5" cy="2.5" r="0.4" fill="#055df5" opacity="1" />
  <circle cx="9.5" cy="3.5" r="0.4" fill="#055df5" opacity="0.6" />
  <circle cx="10.5" cy="3.5" r="0.4" fill="#055df5" opacity="1" />
  <circle cx="12.5" cy="3.5" r="0.4" fill="#055df5" opacity="1" />
  <circle cx="13.5" cy="3.5" r="0.4" fill="#055df5" opacity="1" />
  <circle cx="14.5" cy="3.5" r="0.4" fill="#055df5" opacity="0.6" />
  <circle cx="9.5" cy="4.5" r="0.4" fill="#055df5" opacity="1" />
  <circle cx="10.5" cy="4.5" r="0.4" fill="#055df5" opacity="0.6" />
  <circle cx="13.5" cy="4.5" r="0.4" fill="#055df5" opacity="1" />
  <circle cx="14.5" cy="4.5" r="0.4" fill="#055df5" opacity="1" />
  <circle cx="9.5" cy="5.5" r="0.4" fill="#055df5" opacity="1" />
  <circle cx="10.5" cy="5.5" r="0.4" fill="#055df5" opacity="1" />
  <circle cx="14.5" cy="5.5" r="0.4" fill="#055df5" opacity="1" />
  <circle cx="9.5" cy="6.5" r="0.4" fill="#055df5" opacity="0.6" />
  <circle cx="10.5" cy="6.5" r="0.4" fill="#055df5" opacity="1" />
  <circle cx="14.5" cy="6.5" r="0.4" fill="#055df5" opacity="1" />
</svg>